<svg xmlns="http://www.w3.org/2000/svg" fill="none" viewBox="0 0 64 64" id="Chroma--Streamline-Svg-Logos" height="64" width="64">
  <desc>
    Chroma Streamline Icon: https://streamlinehq.com
  </desc>
  <path fill="#ffde2d" d="M42.444199999999995 52.05333333333333c11.5366 0 20.888866666666665 -8.978133333333332 20.888866666666665 -20.053266666666666 0 -11.075133333333333 -9.352266666666665 -20.053266666666666 -20.888866666666665 -20.053266666666666 -11.5366 0 -20.888866666666665 8.978133333333332 -20.888866666666665 20.053266666666666 0 11.075133333333333 9.352266666666665 20.053266666666666 20.888866666666665 20.053266666666666Z" stroke-width="0.6667"></path>
  <path fill="#327eff" d="M21.555533333333333 52.05333333333333c11.5366 0 20.888866666666665 -8.978133333333332 20.888866666666665 -20.053266666666666 0 -11.075133333333333 -9.352266666666665 -20.053266666666666 -20.888866666666665 -20.053266666666666C10.018933333333333 11.9468 0.6666666666666666 20.924933333333332 0.6666666666666666 32.00006666666667 0.6666666666666666 43.075199999999995 10.018933333333333 52.05333333333333 21.555533333333333 52.05333333333333Z" stroke-width="0.6667"></path>
  <path fill="#ff6446" d="M42.44433333333333 32.00006666666667c0 11.075199999999999 -9.352333333333332 20.05313333333333 -20.889 20.05313333333333V32.00006666666667h20.889Zm-20.889 0c0 -11.075133333333333 9.352266666666665 -20.053266666666666 20.889 -20.053266666666666v20.053266666666666H21.55533333333333Z" stroke-width="0.6667"></path>
</svg>