<svg xmlns="http://www.w3.org/2000/svg" fill="none" viewBox="0 0 64 64" id="Docker-Icon--Streamline-Svg-Logos" height="64" width="64">
  <desc>
    Docker Icon Streamline Icon: https://streamlinehq.com
  </desc>
  <path fill="#2396ed" d="M62.0398 26.645466666666668c-1.4111333333333331 -0.9791333333333332 -4.645 -1.3463333333333332 -7.173266666666667 -0.8567333333333332 -0.294 -2.4478 -1.6463333333333332 -4.589666666666666 -3.9982666666666664 -6.4867333333333335l-1.3523333333333334 -0.9791333333333332 -0.9407333333333333 1.4075333333333333c-1.1759333333333333 1.8358666666666665 -1.7639333333333334 4.406066666666666 -1.5875333333333332 6.853866666666666 0.0588 0.8567333333333332 0.3528 2.3865999999999996 1.2347333333333332 3.7329333333333334 -0.8231333333333333 0.48953333333333326 -2.5282666666666667 1.1015333333333333 -4.7626 1.1015333333333333H0.9493466666666667l-0.11759333333333333 0.48953333333333326c-0.4115846666666666 2.4478 -0.4115846666666666 10.097266666666666 4.4098 15.971999999999998C8.887 52.34753333333333 14.296333333333333 54.611799999999995 21.4108 54.611799999999995c15.404933333333332 0 26.8116 -7.404666666666666 32.1622 -20.806466666666665 2.1166666666666663 0.061200000000000004 6.644066666666667 0 8.937199999999999 -4.589666666666666 0.0588 -0.12240000000000001 0.17633333333333334 -0.3671333333333333 0.5879333333333333 -1.2850666666666666L63.33333333333333 27.440999999999995l-1.2935333333333332 -0.7955333333333333ZM34.9342 9.388333333333332h-6.467666666666666v6.119533333333333h6.467666666666666v-6.119533333333333Zm0 7.343466666666666h-6.467666666666666v6.119533333333333h6.467666666666666v-6.119533333333333Zm-7.643666666666666 0h-6.467666666666666v6.119533333333333h6.467666666666666v-6.119533333333333Zm-7.6436 0h-6.4677333333333324v6.119533333333333h6.4677333333333324v-6.119533333333333ZM12.003266666666665 24.075266666666668H5.535539999999999v6.119533333333333h6.467726666666666v-6.119533333333333Zm7.643666666666666 0h-6.4677333333333324v6.119533333333333h6.4677333333333324v-6.119533333333333Zm7.6436 0h-6.467666666666666v6.119533333333333h6.467666666666666v-6.119533333333333Zm7.643666666666666 0h-6.467666666666666v6.119533333333333h6.467666666666666v-6.119533333333333Zm7.643666666666666 0h-6.4677333333333324v6.119533333333333h6.4677333333333324v-6.119533333333333Z" stroke-width="0.6667"></path>
</svg>