<svg xmlns="http://www.w3.org/2000/svg" fill="none" viewBox="0 0 64 64" id="Git-Icon--Streamline-Svg-Logos" height="64" width="64">
  <desc>
    Git Icon Streamline Icon: https://streamlinehq.com
  </desc>
  <path fill="#de4c36" d="M62.15133333333333 29.2084 34.79013333333333 1.84924c-1.5745333333333333 -1.5759513333333333 -4.130333333333333 -1.5759513333333333 -5.706999999999999 0l-5.681533333333332 5.681559999999999 7.207333333333333 7.2072666666666665c1.6749333333333332 -0.5658666666666666 3.5953999999999997 -0.18633333333333335 4.930666666666666 1.149 1.3415333333333335 1.3435333333333332 1.7183333333333333 3.2804666666666664 1.1386666666666665 4.960933333333333l6.946 6.946c1.6804666666666668 -0.5789333333333333 3.6194666666666664 -0.2042 4.961666666666666 1.1400666666666666 1.8757333333333333 1.8750666666666667 1.8757333333333333 4.914199999999999 0 6.7905999999999995 -1.8764666666666667 1.8764666666666667 -4.9155999999999995 1.8764666666666667 -6.792666666666666 0 -1.4109333333333334 -1.4122666666666666 -1.7595333333333332 -3.4846666666666666 -1.0451333333333332 -5.222933333333333l-6.477799999999999 -6.477733333333333 -0.0006666666666666666 17.046666666666667c0.45719999999999994 0.22693333333333332 0.8889999999999999 0.5287999999999999 1.2699333333333334 0.9083333333333333 1.8757333333333333 1.8750666666666667 1.8757333333333333 4.914199999999999 0 6.792 -1.8763999999999998 1.8757333333333333 -4.916933333333333 1.8757333333333333 -6.7905999999999995 0 -1.8757333333333333 -1.8778 -1.8757333333333333 -4.916933333333333 0 -6.792 0.46340000000000003 -0.46273333333333333 0.9997333333333334 -0.8127333333333333 1.5717999999999999 -1.0479333333333334V23.72553333333333c-0.5720666666666666 -0.23373333333333335 -1.1076666666666666 -0.5816666666666667 -1.5717999999999999 -1.0478666666666667 -1.4212666666666665 -1.4192 -1.763 -3.5046 -1.0348 -5.249733333333333L20.61 10.322399999999998 1.8491466666666665 29.081866666666663c-1.5766399999999998 1.5773333333333333 -1.5766399999999998 4.133133333333333 0 5.709066666666666L29.21033333333333 62.150800000000004c1.5752666666666664 1.5759333333333334 4.1304 1.5759333333333334 5.7077333333333335 0l27.233266666666665 -27.232666666666663c1.5759999999999998 -1.5766666666666667 1.5759999999999998 -4.1338 0 -5.709733333333333Z" stroke-width="0.6667"></path>
</svg>