<svg xmlns="http://www.w3.org/2000/svg" fill="none" viewBox="0 0 64 64" id="Java--Streamline-Svg-Logos" height="64" width="64">
  <desc>
    Java Streamline Icon: https://streamlinehq.com
  </desc>
  <path fill="#5382a1" d="M23.776066666666665 49.13026666666667s-2.394733333333333 1.3926666666666665 1.7042666666666666 1.8639333333333332c4.965866666666667 0.5664666666666667 7.503866666666667 0.4852666666666666 12.976266666666668 -0.5504666666666667 0 0 1.4387333333333334 0.9021333333333332 3.4480666666666666 1.6834666666666664 -12.267666666666665 5.2577333333333325 -27.764199999999995 -0.3045333333333333 -18.1286 -2.9969333333333332Z" stroke-width="0.6667"></path>
  <path fill="#5382a1" d="M22.277066666666663 42.2694s-2.6859333333333333 1.9882 1.4161333333333332 2.4124666666666665c5.304666666666666 0.5472666666666666 9.493933333333333 0.592 16.742866666666664 -0.8038 0 0 1.0026666666666666 1.0164666666666666 2.5791999999999997 1.5723333333333331 -14.832333333333333 4.337199999999999 -31.352933333333333 0.34199999999999997 -20.7382 -3.1809999999999996Z" stroke-width="0.6667"></path>
  <path fill="#e76f00" d="M34.91446666666666 30.630799999999997c3.022733333333333 3.4801333333333333 -0.7942 6.611866666666666 -0.7942 6.611866666666666s7.6752666666666665 -3.9622666666666664 4.150333333333333 -8.923866666666665c-3.292133333333333 -4.627066666666666 -5.816799999999999 -6.925999999999999 7.850666666666666 -14.852666666666666 0 0 -21.453400000000002 5.358066666666667 -11.206799999999998 17.164666666666665Z" stroke-width="0.6667"></path>
  <path fill="#5382a1" d="M51.1394 54.20513333333333s1.7721333333333331 1.4602 -1.9517333333333333 2.5898666666666665c-7.081066666666667 2.145133333333333 -29.4722 2.792866666666667 -35.69233333333333 0.08546666666666666 -2.2359999999999998 -0.9727333333333333 1.9570666666666665 -2.3226666666666667 3.276066666666667 -2.6058666666666666 1.3756 -0.29833333333333334 2.1616666666666666 -0.2427333333333333 2.1616666666666666 -0.2427333333333333 -2.4866 -1.7517333333333334 -16.072633333333332 3.4395999999999995 -6.901 4.926333333333333 25.0124 4.056266666666666 45.59519999999999 -1.8265333333333331 39.10733333333333 -4.753066666666666Z" stroke-width="0.6667"></path>
  <path fill="#5382a1" d="M24.927799999999998 35.160399999999996s-11.389533333333333 2.7052666666666667 -4.033333333333333 3.6875999999999998c3.106 0.41586666666666666 9.297799999999999 0.3218 15.065333333333331 -0.16146666666666665 4.713466666666666 -0.3976 9.4464 -1.2429999999999999 9.4464 -1.2429999999999999s-1.662 0.7118 -2.864466666666667 1.5328666666666666c-11.565866666666667 3.0418000000000003 -33.90906666666666 1.6267333333333334 -27.476733333333332 -1.4847333333333332 5.4398 -2.6295333333333333 9.8628 -2.3312666666666666 9.8628 -2.3312666666666666Z" stroke-width="0.6667"></path>
  <path fill="#5382a1" d="M45.358999999999995 46.58093333333333c11.757266666666666 -6.109533333333333 6.321199999999999 -11.980733333333333 2.5268666666666664 -11.189733333333333 -0.9299999999999999 0.19353333333333333 -1.3446666666666665 0.3612666666666667 -1.3446666666666665 0.3612666666666667s0.34526666666666667 -0.5408666666666666 1.0046666666666666 -0.7749333333333334c7.5064 -2.639 13.279266666666667 7.7834 -2.4231333333333334 11.911266666666666 0 0 0.18186666666666665 -0.16246666666666665 0.23626666666666665 -0.3078666666666666Z" stroke-width="0.6667"></path>
  <path fill="#e76f00" d="M38.270466666666664 0.6666666666666666s6.511399999999999 6.513533333333333 -6.1757333333333335 16.529533333333333c-10.173733333333333 8.0346 -2.319933333333333 12.615666666666666 -0.0042 17.849733333333333 -5.938599999999999 -5.358066666666667 -10.296733333333332 -10.074733333333333 -7.372933333333333 -14.464666666666666C29.009 14.137333333333332 40.897666666666666 11.013066666666667 38.270466666666664 0.6666666666666666Z" stroke-width="0.6667"></path>
  <path fill="#5382a1" d="M26.083 63.136333333333326c11.285466666666666 0.7223999999999999 28.615666666666662 -0.4008666666666666 29.026066666666665 -5.7408 0 0 -0.7889333333333333 2.0243333333333333 -9.326866666666666 3.632 -9.6324 1.8126666666666664 -21.5126 1.6010666666666666 -28.558866666666663 0.43933333333333335 0 0 1.4424666666666666 1.1938 8.859666666666666 1.6694666666666667Z" stroke-width="0.6667"></path>
</svg>