<svg xmlns="http://www.w3.org/2000/svg" fill="none" viewBox="0 0 64 64" id="Mistral-Ai-Icon--Streamline-Svg-Logos" height="64" width="64">
  <desc>
    Mistral Ai Icon Streamline Icon: https://streamlinehq.com
  </desc>
  <path fill="#000000" d="M57.6368 3.5151399999999997H46.242866666666664V14.909066666666668h11.393933333333333V3.5151399999999997Z" stroke-width="0.6667"></path>
  <path fill="#f7d046" d="M63.33306666666667 3.5151399999999997H51.93913333333333V14.909066666666668h11.393933333333333V3.5151399999999997Z" stroke-width="0.6667"></path>
  <path fill="#000000" d="M12.0606 3.5151399999999997H0.6666666666666666V14.909066666666668h11.393933333333333V3.5151399999999997Z" stroke-width="0.6667"></path>
  <path fill="#000000" d="M12.0606 14.908999999999999H0.6666666666666666v11.393933333333333h11.393933333333333V14.908999999999999Z" stroke-width="0.6667"></path>
  <path fill="#000000" d="M12.0606 26.303066666666666H0.6666666666666666v11.393933333333333h11.393933333333333V26.303066666666666Z" stroke-width="0.6667"></path>
  <path fill="#000000" d="M12.0606 37.697133333333326H0.6666666666666666v11.393933333333333h11.393933333333333V37.697133333333326Z" stroke-width="0.6667"></path>
  <path fill="#000000" d="M12.0606 49.0908H0.6666666666666666v11.393933333333333h11.393933333333333V49.0908Z" stroke-width="0.6667"></path>
  <path fill="#f7d046" d="M17.757866666666665 3.5151399999999997H6.363933333333333V14.909066666666668h11.393933333333333V3.5151399999999997Z" stroke-width="0.6667"></path>
  <path fill="#f2a73b" d="M63.33306666666667 14.908999999999999H51.93913333333333v11.393933333333333h11.393933333333333V14.908999999999999Z" stroke-width="0.6667"></path>
  <path fill="#f2a73b" d="M17.757866666666665 14.908999999999999H6.363933333333333v11.393933333333333h11.393933333333333V14.908999999999999Z" stroke-width="0.6667"></path>
  <path fill="#000000" d="M46.242599999999996 14.908999999999999h-11.394v11.393933333333333h11.394V14.908999999999999Z" stroke-width="0.6667"></path>
  <path fill="#f2a73b" d="M51.93953333333333 14.908999999999999H40.54559999999999v11.393933333333333h11.393933333333333V14.908999999999999Z" stroke-width="0.6667"></path>
  <path fill="#f2a73b" d="M29.151133333333334 14.908999999999999h-11.394v11.393933333333333h11.394V14.908999999999999Z" stroke-width="0.6667"></path>
  <path fill="#ee792f" d="M40.54533333333333 26.303066666666666H29.1514v11.393933333333333H40.54533333333333V26.303066666666666Z" stroke-width="0.6667"></path>
  <path fill="#ee792f" d="M51.93953333333333 26.303066666666666H40.54559999999999v11.393933333333333h11.393933333333333V26.303066666666666Z" stroke-width="0.6667"></path>
  <path fill="#ee792f" d="M29.151133333333334 26.303066666666666h-11.394v11.393933333333333h11.394V26.303066666666666Z" stroke-width="0.6667"></path>
  <path fill="#000000" d="M34.8484 37.697133333333326h-11.394v11.393933333333333h11.394V37.697133333333326Z" stroke-width="0.6667"></path>
  <path fill="#eb5829" d="M40.54533333333333 37.697133333333326H29.1514v11.393933333333333H40.54533333333333V37.697133333333326Z" stroke-width="0.6667"></path>
  <path fill="#ee792f" d="M63.33306666666667 26.303066666666666H51.93913333333333v11.393933333333333h11.393933333333333V26.303066666666666Z" stroke-width="0.6667"></path>
  <path fill="#ee792f" d="M17.757866666666665 26.303066666666666H6.363933333333333v11.393933333333333h11.393933333333333V26.303066666666666Z" stroke-width="0.6667"></path>
  <path fill="#000000" d="M57.6368 37.697133333333326H46.242866666666664v11.393933333333333h11.393933333333333V37.697133333333326Z" stroke-width="0.6667"></path>
  <path fill="#eb5829" d="M63.33306666666667 37.697133333333326H51.93913333333333v11.393933333333333h11.393933333333333V37.697133333333326Z" stroke-width="0.6667"></path>
  <path fill="#000000" d="M57.6368 49.0908H46.242866666666664v11.393933333333333h11.393933333333333V49.0908Z" stroke-width="0.6667"></path>
  <path fill="#eb5829" d="M17.757866666666665 37.697133333333326H6.363933333333333v11.393933333333333h11.393933333333333V37.697133333333326Z" stroke-width="0.6667"></path>
  <path fill="#ea3326" d="M63.33306666666667 49.0908H51.93913333333333v11.393933333333333h11.393933333333333V49.0908Z" stroke-width="0.6667"></path>
  <path fill="#ea3326" d="M17.757866666666665 49.0908H6.363933333333333v11.393933333333333h11.393933333333333V49.0908Z" stroke-width="0.6667"></path>
</svg>