<svg xmlns="http://www.w3.org/2000/svg" fill="none" viewBox="0 0 64 64" id="Pinecone-Icon--Streamline-Svg-Logos" height="64" width="64">
  <desc>
    Pinecone Icon Streamline Icon: https://streamlinehq.com
  </desc>
  <path fill="#201d1e" d="M27.77593333333333 56.16139999999999c1.9804666666666666 0 3.5859999999999994 1.6054666666666666 3.5859999999999994 3.585933333333333 0 1.9805333333333333 -1.6055333333333333 3.5859999999999994 -3.5859999999999994 3.5859999999999994 -1.9804666666666666 0 -3.585933333333333 -1.6054666666666666 -3.585933333333333 -3.5859999999999994 0 -1.9804666666666666 1.6054666666666666 -3.585933333333333 3.585933333333333 -3.585933333333333Zm19.895 -6.5428 3.5436666666666667 1.0499333333333332 -2.8129333333333335 9.4938c-0.24580000000000002 0.8295999999999999 -1.0342666666666664 1.3775333333333333 -1.8974666666666666 1.3187333333333333l-0.8688666666666666 -0.05959999999999999 -0.021266666666666663 0.01753333333333333 -9.027533333333333 -0.6335333333333333 0.2512 -3.6874000000000002 6.065199999999999 0.41159999999999997 -3.9707333333333334 -5.728 3.0374 -2.1058666666666666 3.975933333333333 5.7350666666666665 1.7253999999999998 -5.812266666666667Zm-38.56966666666666 -6.563066666666666 3.686733333333333 0.26113333333333333 -0.4318 6.064266666666666 5.717533333333333 -3.9758 2.1106 3.034 -5.725 3.9799999999999995 5.8435999999999995 1.7218666666666667 -1.0445333333333333 3.5452666666666666 -9.538599999999999 -2.8102c-0.8327333333333333 -0.24533333333333332 -1.3824666666666667 -1.0372666666666666 -1.3210666666666666 -1.9032666666666667l0.7025333333333333 -9.917266666666666Zm23.804066666666664 -5.164 6.653933333333333 8.0334 -2.998866666666667 2.4839333333333333 -3.96 -4.7809333333333335 -1.2837999999999998 7.350666666666666 -3.8358666666666665 -0.6705333333333333 1.2851333333333332 -7.362066666666667 -5.331133333333333 3.1432666666666664 -1.9765333333333333 -3.3550666666666666 8.959466666666666 -5.2782c0.8236666666666667 -0.4852666666666666 1.8778666666666668 -0.3007333333333333 2.4876666666666667 0.43553333333333333Zm18.616266666666665 -5.389733333333333 3.3238666666666665 -1.8084 4.8422 8.899866666666666c0.42419999999999997 0.7796666666666666 0.24939999999999998 1.7493333333333334 -0.4203333333333333 2.3318l-0.6850666666666667 0.5919333333333333 -6.990466666666666 6.083666666666667 -2.4832 -2.8552 4.699666666666666 -4.088666666666667 -7.0001999999999995 -1.2611333333333332 0.6715333333333333 -3.7238666666666664 6.995266666666667 1.2604 -2.9532666666666665 -5.4304ZM12.322666666666667 23.19713333333333l2.5038666666666662 2.837066666666667 -4.635133333333333 4.088066666666666 7.013533333333333 1.2244666666666666 -0.6500666666666666 3.727733333333333 -7.0212666666666665 -1.2254666666666667 3.0158666666666663 5.4521999999999995 -3.3111333333333333 1.8316666666666666 -4.919786666666666 -8.893466666666665c-0.42954666666666663 -0.7764666666666666 -0.26171999999999995 -1.7471999999999999 0.40360666666666667 -2.3343999999999996L12.322666666666667 23.19713333333333Zm23.707066666666666 -2.926933333333333 6.6314 8.0118 -2.9996666666666667 2.4828666666666663 -3.9590666666666667 -4.7829999999999995 -1.2838666666666665 7.3528666666666656 -3.8358 -0.6705333333333333 1.2806666666666666 -7.333533333333333 -5.310666666666666 3.1132 -1.9689999999999999 -3.3595333333333333 8.157466666666666 -4.7828 0.008066666666666666 -0.031066666666666666 0.03593333333333333 0.004666666666666666 0.7602 -0.4432666666666667c0.8236 -0.48266666666666663 1.8756666666666666 -0.29706666666666665 2.4843333333333333 0.4383333333333333Zm8.545399999999999 -3.9402 1.4503333333333333 -3.4949999999999997 9.381466666666666 3.893133333333333c0.8188 0.3398 1.2919333333333332 1.2026666666666666 1.1381333333333332 2.075733333333333l-0.1562 0.8684666666666666 -1.6019999999999999 9.1128 -3.7266 -0.6564666666666666 1.0737999999999999 -6.100133333333333 -6.224 3.439866666666666 -1.8290666666666664 -3.312533333333333 6.235933333333333 -3.4427333333333334 -5.7418 -2.3831333333333333ZM26.703599999999998 9.442799999999998l0.16126666666666667 3.780533333333333 -6.197133333333333 0.26486666666666664 4.6739999999999995 5.3414 -2.8477333333333332 2.4917999999999996 -4.681866666666666 -5.349466666666666 -1.0908 6.107266666666666 -3.7248666666666663 -0.6662666666666666 1.7851333333333335 -9.980333333333332c0.156 -0.8722666666666666 0.8964666666666666 -1.5194 1.7817999999999998 -1.5572l0.8769333333333332 -0.0392 0.019666666666666666 -0.014266666666666665 9.243599999999999 -0.3791333333333333ZM39.38033333333333 1.3803066666666668 45.98173333333333 9.442666666666666l-3.0128666666666666 2.4669333333333334 -3.918066666666667 -4.786 -1.3215333333333332 7.343133333333332 -3.8324 -0.6896666666666667 1.3237333333333332 -7.35964 -5.3494 3.12764 -1.9646 -3.3620733333333335L36.8916 0.9327333333333333c0.8267333333333333 -0.4831113333333333 1.8820666666666668 -0.2933213333333333 2.4887333333333332 0.44757333333333327Z" stroke-width="0.6667"></path>
</svg>