<svg xmlns="http://www.w3.org/2000/svg" fill="none" viewBox="0 0 64 64" id="Pytorch-Icon--Streamline-Svg-Logos" height="64" width="64">
  <desc>
    Pytorch Icon Streamline Icon: https://streamlinehq.com
  </desc>
  <path fill="#ee4c2c" d="M31.964599999999997 0.6666666666666666v9.124133333333333l-14.0192 14.018666666666665c-7.337066666666666 7.441533333333333 -7.336333333333333 19.412133333333333 0.0022666666666666664 26.988599999999998l0.22459999999999997 0.22826666666666665c7.4974 7.6388 19.8044 7.6388 27.443199999999997 0 7.5624666666666664 -7.4224 7.638066666666667 -19.558733333333333 0.22686666666666666 -27.2126l-0.22686666666666666 -0.23059999999999997 4.6682 -4.6681333333333335c10.185066666666666 10.185066666666666 10.185066666666666 26.523666666666664 0 36.77953333333333 -9.972933333333334 10.185066666666666 -26.382266666666666 10.185066666666666 -36.5674 0 -10.083219999999999 -10.083266666666667 -10.184046666666667 -26.266866666666665 -0.30246666666666666 -36.47213333333333l0.30246666666666666 -0.3074L31.964599999999997 0.6666666666666666Zm9.194866666666666 10.326533333333334c1.8750666666666667 0 3.3950666666666667 1.5200666666666667 3.3950666666666667 3.3950666666666667s-1.5199999999999998 3.395 -3.3950666666666667 3.395c-1.875 0 -3.395 -1.5199999999999998 -3.395 -3.395 0 -1.875 1.5199999999999998 -3.3950666666666667 3.395 -3.3950666666666667Z" stroke-width="0.6667"></path>
</svg>