<svg xmlns="http://www.w3.org/2000/svg" fill="none" viewBox="0 0 64 64" id="Streamlit--Streamline-Svg-Logos" height="64" width="64">
  <desc>
    Streamlit Streamline Icon: https://streamlinehq.com
  </desc>
  <path fill="#ff4b4b" d="M30.993533333333332 15.494066666666665c0.47 -0.7121333333333333 1.5317999999999998 -0.7121333333333333 2.019333333333333 0l9.976066666666666 14.871199999999998 10.604666666666667 15.793666666666667c-0.12519999999999998 0.2228 -0.26966666666666667 0.4342 -0.4317333333333333 0.6318666666666666 -0.11073333333333332 0.13179999999999997 -0.2156 0.2565333333333333 -0.34633333333333327 0.3845333333333333 -0.028666666666666663 0.027466666666666667 -0.05639999999999999 0.04886666666666667 -0.09066666666666667 0.07493333333333332l-0.0368 0.028066666666666663c-0.12 0.08966666666666667 -0.24366666666666664 0.1744 -0.37053333333333327 0.254 -0.1028 0.06433333333333333 -0.1878 0.12119999999999999 -0.3106 0.18026666666666663 -0.12266666666666666 0.05913333333333333 -0.3188 0.13013333333333332 -0.43679999999999997 0.17066666666666666 -0.11826666666666666 0.04073333333333333 -0.15773333333333334 0.05453333333333333 -0.24486666666666668 0.07373333333333333 -0.0434 0.008799999999999999 -0.08706666666666665 0.017333333333333333 -0.13053333333333333 0.0226 -0.029666666666666664 0.0052 -0.05913333333333333 0.0104 -0.0888 0.014 -0.0052 0.0016666666666666666 -0.012066666666666667 0.0016666666666666666 -0.017333333333333333 0.003533333333333333l-0.1324 0.015666666666666666c-0.13913333333333333 0.0138 -0.2836666666666666 0.020866666666666665 -0.4316 0.020866666666666665 -12.306 1.3417333333333332 -24.721399999999996 1.3417333333333332 -37.0274 0 -0.014 0 -0.0278 0 -0.04173333333333333 -0.0018666666666666666l-0.041800000000000004 -0.00019999999999999998 -0.0192 -0.0014666666666666667h-0.019066666666666666c-0.013933333333333332 -0.0016666666666666666 -0.02793333333333333 -0.0016666666666666666 -0.04173333333333333 -0.003533333333333333h-0.014c-0.0192 -0.0016666666666666666 -0.0368 -0.0016666666666666666 -0.0556 -0.003333333333333333 -0.11486666666666667 -0.008799999999999999 -0.2487333333333333 -0.037866666666666667 -0.3446666666666667 -0.05913333333333333 -0.09606666666666666 -0.0192 -0.15326666666666666 -0.034866666666666664 -0.2333333333333333 -0.05246666666666667 -0.9470666666666667 -0.2245333333333333 -1.8173333333333332 -0.7954 -2.2160666666666664 -1.7197333333333333 -0.010466666666666666 -0.024466666666666668 -0.0192 -0.048666666666666664 -0.029666666666666664 -0.07313333333333333l-0.0016666666666666666 -0.0052L0.7217866666666667 21.330599999999997c-0.26111266666666666 -0.6961999999999999 0.45265999999999995 -1.3926666666666665 1.1488866666666666 -1.0617999999999999 0.017546666666666665 0 0.052219999999999996 0 0.06976666666666667 0.017333333333333333L21.01033333333333 30.365066666666667l9.9832 -14.870999999999999Zm31.089933333333335 4.7922666666666665c0.6981333333333333 -0.3828666666666667 1.4466 0.27846666666666664 1.2027999999999999 1.0095999999999998v0.034866666666666664L53.593799999999995 46.15913333333333 42.988933333333335 30.365266666666663l19.077199999999998 -10.078933333333332h0.017333333333333333Z" stroke-width="0.6667"></path>
  <path fill="#7d353b" d="M62.0836 20.28673333333333h-0.0174L42.989266666666666 30.3656l10.604666666666667 15.793866666666666 9.6924 -24.828333333333333v-0.034866666666666664c0.24380000000000002 -0.7311333333333333 -0.5046666666666666 -1.3924666666666665 -1.2027333333333332 -1.0095333333333332Z" stroke-width="0.6667"></path>
  <path fill="#bd4043" d="M33.01293333333333 15.494066666666665c-0.48753333333333326 -0.7121333333333333 -1.5493333333333332 -0.7121333333333333 -2.019333333333333 0L21.010399999999997 30.365266666666663l10.985866666666666 5.807066666666666 20.819333333333333 11.003c0.1308 -0.128 0.23566666666666664 -0.2527333333333333 0.34633333333333327 -0.3845333333333333 0.16206666666666666 -0.19766666666666666 0.3065333333333333 -0.4090666666666667 0.4318 -0.6318666666666666l-10.604666666666667 -15.793666666666667 -9.976133333333333 -14.871199999999998Z" stroke-width="0.6667"></path>
</svg>