<svg xmlns="http://www.w3.org/2000/svg" fill="none" viewBox="0 0 64 64" id="Tensorflow--Streamline-Svg-Logos" height="64" width="64">
  <desc>
    Tensorflow Streamline Icon: https://streamlinehq.com
  </desc>
  <path fill="#e55b2d" d="M36.17446666666666 10.306666666666667v9.641466666666666L52.87266666666666 29.589599999999997V19.94813333333333L36.17446666666666 10.306666666666667ZM2.7770200000000003 19.94813333333333v9.641466666666666L11.126133333333332 34.40933333333333V24.768866666666668L2.7770200000000003 19.94813333333333Zm25.047313333333335 4.820733333333333 -8.349066666666666 4.820733333333333v28.922466666666665l8.349066666666666 4.820733333333333V44.050866666666664l8.350133333333332 4.820733333333333V39.23013333333333L27.824333333333332 34.40933333333333V24.768866666666668Z" stroke-width="0.6667"></path>
  <path fill="#ed8e24" d="M36.17433333333333 10.306666666666667 11.126 24.768866666666668V34.40933333333333l16.6982 -9.640466666666665V34.40933333333333l8.350133333333332 -4.819733333333333V10.306666666666667Zm25.048333333333332 4.820733333333333 -8.350133333333332 4.820733333333333v9.641466666666666l8.350133333333332 -4.820733333333333V15.127399999999998ZM44.523399999999995 34.40933333333333l-8.349066666666666 4.8208v9.641466666666666l8.349066666666666 -4.820733333333333V34.40933333333333ZM36.17433333333333 48.8716l-8.350133333333332 -4.820733333333333v19.28193333333333l8.350133333333332 -4.820733333333333V48.8716Z" stroke-width="0.6667"></path>
  <path fill="#f8bf3c" d="M36.17446666666666 0.6666666666666666 2.7770200000000003 19.948666666666664l8.349113333333332 4.820733333333333 25.048333333333332 -14.462266666666666L52.87266666666666 19.948666666666664l8.350133333333332 -4.820733333333333L36.17446666666666 0.6666666666666666Zm0 28.923466666666663 -8.350133333333332 4.819733333333333 8.350133333333332 4.820733333333333 8.349133333333333 -4.820733333333333 -8.349133333333333 -4.819733333333333Z" stroke-width="0.6667"></path>
</svg>